<svg id="Heymondo" xmlns="http://www.w3.org/2000/svg" width="399.698" height="80.162" viewBox="0 0 399.698 80.162">
  <path id="Trazado_59" data-name="Trazado 59" d="M0,60.076H12.021V35.607H38.356V60.076H50.376V0H38.356V24.286H12.021V0H0Z" fill="#00c265"/>
  <path id="Trazado_60" data-name="Trazado 60" d="M43.268,27.427c.734-5.113,4.313-8.491,9.818-8.491,5.23,0,8.809,3.1,9.268,8.491ZM73.64,30.805c0-6.939-1.927-12.326-5.781-16.069A20.147,20.147,0,0,0,53.453,9.076a22.438,22.438,0,0,0-15.6,6.026c-4.4,4.108-6.607,9.678-6.607,16.8s2.294,12.6,6.79,16.526a23.658,23.658,0,0,0,16.15,5.935c7.983,0,14.315-3.013,19.086-8.948l-7.065-7.03a14.193,14.193,0,0,1-11.929,5.752c-5.414,0-9.818-2.374-10.828-7.852H73.273A40.091,40.091,0,0,0,73.64,30.805Z" transform="translate(22.82 6.628)" fill="#00c265"/>
  <path id="Trazado_61" data-name="Trazado 61" d="M88.253,9.709V30.891c0,7.3-3.579,11.778-9.543,11.778-5.506,0-8.442-3.652-8.442-9.221V9.709H58.523V35q0,8.354,5.23,12.873a17.921,17.921,0,0,0,12.479,4.656c5.781,0,9.91-1.917,12.2-5.752v5.478c0,6.939-4.4,10.865-10.736,10.865-5.781,0-10.277-3.2-11.654-9.5L55.495,57.368c2.661,9.952,11.47,15.7,21.747,15.7A24.052,24.052,0,0,0,93.3,67.32c4.5-3.926,6.7-9.221,6.7-15.978V9.709Z" transform="translate(40.527 7.09)" fill="#00c265"/>
  <path id="Trazado_62" data-name="Trazado 62" d="M131.311,9.076q-9.222,0-12.939,7.4c-1.926-4.93-5.964-7.4-11.928-7.4-4.955,0-8.626,2.1-10.919,6.208V10.171H83.87V53.448H95.616V28.34c0-6.117,2.936-9.4,7.432-9.4,4.037,0,6.7,2.648,6.7,7.669V53.448h11.745V28.34c0-6.117,3.12-9.4,7.617-9.4,4.037,0,6.423,2.648,6.423,7.669V53.448h11.745V25.419q0-7.806-4.679-12.052A16.248,16.248,0,0,0,131.311,9.076Z" transform="translate(61.25 6.628)" fill="#00c265"/>
  <path id="Trazado_63" data-name="Trazado 63" d="M144.779,19.119c6.883,0,11.654,5.113,11.654,12.508,0,7.578-4.77,12.6-11.654,12.6-6.7,0-11.562-5.022-11.562-12.6C133.218,24.232,138.081,19.119,144.779,19.119Zm-16.609-3.47a21.854,21.854,0,0,0-6.606,16.069,21.853,21.853,0,0,0,6.606,16.069,22.536,22.536,0,0,0,16.609,6.574,22.894,22.894,0,0,0,16.7-6.574,21.853,21.853,0,0,0,6.606-16.069,21.854,21.854,0,0,0-6.606-16.069,22.894,22.894,0,0,0-16.7-6.574A22.537,22.537,0,0,0,128.17,15.649Z" transform="translate(88.777 6.628)" fill="#00c265"/>
  <path id="Trazado_64" data-name="Trazado 64" d="M174.824,9.076c-5.873,0-10.276,2.191-13.121,6.482V10.171H150.05V53.448H161.8V30.9c0-7.03,3.395-11.96,9.543-11.96,5.047,0,7.617,3.2,7.617,9.5V53.448H190.7V25.875C190.7,15.284,184,9.076,174.824,9.076Z" transform="translate(109.58 6.628)" fill="#00c265"/>
  <path id="Trazado_65" data-name="Trazado 65" d="M198.729,51.22c-7.066,0-11.929-5.021-11.929-12.965,0-8.034,4.862-12.782,11.745-12.782,6.606,0,12.112,4.2,12.112,12.873C210.658,46.655,205.611,51.22,198.729,51.22ZM196.618,15.7a21.438,21.438,0,0,0-15.048,5.935c-4.314,4.017-6.423,9.587-6.423,16.617,0,7.213,2.2,12.782,6.515,16.708a21.839,21.839,0,0,0,15.415,6.026,16.959,16.959,0,0,0,13.764-6.208v5.3h11.654V0H210.75V22.643C207.9,17.986,203.133,15.7,196.618,15.7Z" transform="translate(127.909)" fill="#00c265"/>
  <path id="Trazado_66" data-name="Trazado 66" d="M227.328,19.119c6.881,0,11.654,5.113,11.654,12.508,0,7.578-4.772,12.6-11.654,12.6-6.7,0-11.562-5.022-11.562-12.6C215.767,24.232,220.63,19.119,227.328,19.119Zm-16.609-3.47a21.854,21.854,0,0,0-6.606,16.069,21.853,21.853,0,0,0,6.606,16.069,22.536,22.536,0,0,0,16.609,6.574,22.894,22.894,0,0,0,16.7-6.574,21.853,21.853,0,0,0,6.606-16.069,21.854,21.854,0,0,0-6.606-16.069,22.9,22.9,0,0,0-16.7-6.574A22.537,22.537,0,0,0,210.719,15.649Z" transform="translate(149.062 6.628)" fill="#00c265"/>
</svg>
